<svg width="77" height="57" viewBox="0 0 77 57" fill="none" xmlns="http://www.w3.org/2000/svg">
<path d="M35.4962 4.13L26.8066 2.24C25.3468 1.96 23.9565 2.87 23.6784 4.34L21.5929 14.28H28.7531L35.4962 4.13Z" fill="#00BEA1"/>
<path d="M49.3568 33.48V39.64C49.3568 40.41 49.9825 41.04 50.7471 41.04H60.549V32.15H50.7471C49.9825 32.15 49.3568 32.71 49.3568 33.48Z" fill="#472FC8"/>
<path d="M56.3085 16.68H4.86618C2.50262 16.68 0.625671 18.57 0.625671 20.95V52.17C0.625671 54.55 2.50262 56.44 4.86618 56.44H56.3085C58.672 56.44 60.549 54.55 60.549 52.17V43.77H50.7471C48.4531 43.77 46.5761 41.88 46.5761 39.57V33.41C46.5761 31.1 48.4531 29.21 50.7471 29.21H60.549V20.81C60.549 18.57 58.672 16.68 56.3085 16.68Z" fill="#472FC8"/>
<path d="M23.5321 16.68H2.3701C1.3978 16.68 0.625671 18.57 0.625671 20.95V52.17C0.625671 54.55 1.3978 56.44 2.3701 56.44H23.5321C24.5044 56.44 24.5044 16.68 23.5321 16.68Z" fill="#351DB6"/>
<path fill-rule="evenodd" clip-rule="evenodd" d="M22.9405 16.75H38.5817L27.8067 56.3H22.9405V16.75Z" fill="#351DB6"/>
<path d="M33.0204 14.28H40.7367H56.2389L56.4475 13.93C57.2817 12.67 57.0036 10.92 55.8218 10.08L43.4479 1.05C42.2661 0.210002 40.5977 0.490002 39.7635 1.75L37.8865 4.55L31.352 14.28H33.0204Z" fill="#472FC8"/>
<path d="M67.1873 20.8605C66.9777 20.8605 66.7942 20.7812 66.6369 20.6227C66.4797 20.4642 66.4011 20.2792 66.4011 20.0679V14.3293H60.8657C60.656 14.3293 60.4725 14.2501 60.3153 14.0915C60.158 13.933 60.0794 13.7481 60.0794 13.5367V11.0955C60.0794 10.863 60.1528 10.6675 60.2996 10.5089C60.4463 10.3504 60.635 10.2711 60.8657 10.2711H66.4011V4.72285C66.4011 4.49035 66.4797 4.30012 66.6369 4.15217C66.7942 4.00421 66.9777 3.93024 67.1873 3.93024H69.8921C70.1228 3.93024 70.3167 4.00421 70.474 4.15217C70.6312 4.30012 70.7098 4.49035 70.7098 4.72285V10.2711H76.1823C76.413 10.2711 76.6069 10.3504 76.7642 10.5089C76.9214 10.6675 77 10.863 77 11.0955V13.5367C77 13.7692 76.9214 13.9594 76.7642 14.1074C76.6069 14.2554 76.413 14.3293 76.1823 14.3293H70.7098V20.0679C70.7098 20.3004 70.6312 20.4906 70.474 20.6385C70.3167 20.7865 70.1228 20.8605 69.8921 20.8605H67.1873Z" fill="#00BEA1"/>
</svg>
