<svg width="62" height="68" viewBox="0 0 62 68" fill="none" xmlns="http://www.w3.org/2000/svg">
<path d="M13.86 61.7579C13.86 64.9565 10.7571 67.5471 6.93 67.5471C3.10288 67.5471 0 64.9565 0 61.7579V37.0862C0 33.8877 3.10288 31.2971 6.93 31.2971C10.7571 31.2971 13.86 33.8877 13.86 37.0862V61.7579Z" fill="#472FC8"/>
<path fill-rule="evenodd" clip-rule="evenodd" d="M6.93 30.0471C10.7573 30.0471 13.86 26.969 13.86 23.1721C13.86 19.3751 10.7573 16.2971 6.93 16.2971C3.10267 16.2971 0 19.3751 0 23.1721C0 26.969 3.10267 30.0471 6.93 30.0471Z" fill="#00BEA1"/>
<path d="M61.0802 59.5783C61.0802 65.1008 57.8269 67.0783 52.2602 67.0783H26.6406C21.0739 67.0783 16.5606 62.6008 16.5606 57.0783V32.0783C16.5606 32.0783 16.0629 27.9208 20.701 24.012C23.3243 21.7995 27.2202 17.582 29.9431 12.4608C35.351 2.28953 38.5854 -0.671718 41.0525 0.122032C50.1724 3.05578 45.6112 16.4733 42.6691 22.0783H50.9989C56.5656 22.0783 61.0789 26.5558 61.0789 32.0783V59.5783H61.0802Z" fill="#472FC8"/>
<mask id="mask0" mask-type="alpha" maskUnits="userSpaceOnUse" x="16" y="0" width="46" height="68">
<path d="M61.0802 59.5783C61.0802 65.1008 57.8269 67.0783 52.2602 67.0783H26.6406C21.0739 67.0783 16.5606 62.6008 16.5606 57.0783V32.0783C16.5606 32.0783 16.0629 27.9208 20.701 24.012C23.3243 21.7995 27.2202 17.582 29.9431 12.4608C35.351 2.28953 38.5854 -0.671718 41.0525 0.122032C50.1724 3.05578 45.6112 16.4733 42.6691 22.0783H50.9989C56.5656 22.0783 61.0789 26.5558 61.0789 32.0783V59.5783H61.0802Z" fill="white"/>
</mask>
<g mask="url(#mask0)">
<path d="M53.052 15.545L104.338 44.92L74.728 95.799L23.442 66.424L53.052 15.545Z" fill="#351DB6"/>
</g>
</svg>
