<svg width="58" height="54" viewBox="0 0 58 54" fill="none" xmlns="http://www.w3.org/2000/svg">
<path d="M33.6025 3.9088L25.3638 2.12005C23.9797 1.85505 22.6616 2.7163 22.3979 4.10755L20.4207 13.515H27.2093L33.6025 3.9088Z" fill="#00BEA1"/>
<path d="M46.7955 31.74V37.57C46.7955 38.2987 47.3887 38.895 48.1137 38.895H57.4069V30.4812H48.1137C47.3887 30.4812 46.7955 31.0112 46.7955 31.74Z" fill="#472FC8"/>
<path d="M53.3864 15.84H4.61372C2.37281 15.84 0.593262 17.6287 0.593262 19.8812V49.4287C0.593262 51.6812 2.37281 53.47 4.61372 53.47H53.3864C55.6274 53.47 57.4069 51.6812 57.4069 49.4287V41.4787H48.1137C45.9387 41.4787 44.1592 39.69 44.1592 37.5037V31.6737C44.1592 29.4875 45.9387 27.6987 48.1137 27.6987H57.4069V19.7487C57.4069 17.6287 55.6274 15.84 53.3864 15.84Z" fill="#472FC8"/>
<path d="M22.311 15.84H2.24717C1.32532 15.84 0.593262 17.6287 0.593262 19.8812V49.4287C0.593262 51.6812 1.32532 53.47 2.24717 53.47H22.311C23.2328 53.47 23.2328 15.84 22.311 15.84Z" fill="#351DB6"/>
<path fill-rule="evenodd" clip-rule="evenodd" d="M21.75 15.9062H36.5795L26.3636 53.3375H21.75V15.9062Z" fill="#351DB6"/>
<path d="M31.3069 13.515H38.6228H53.3206L53.5183 13.1837C54.3092 11.9912 54.0456 10.335 52.9251 9.53999L41.1933 0.993739C40.0728 0.198739 38.491 0.463739 37.7001 1.65624L35.9206 4.30624L29.7251 13.515H31.3069Z" fill="#472FC8"/>
</svg>
