<svg width="276" height="311" viewBox="0 0 276 311" fill="none" xmlns="http://www.w3.org/2000/svg">
<path d="M112.298 173.589L49.7136 214.456C46.7595 216.386 41.7213 213.902 38.4865 208.906L3.5421 155.394C0.279223 150.398 0.0336292 144.785 2.98075 142.855L65.5649 101.981C68.5261 100.052 73.5642 102.543 76.8271 107.532L111.772 161.05C115.02 166.039 115.252 171.66 112.298 173.589Z" fill="#F3F6FF"/>
<path d="M233.431 147.788L170.847 188.655C167.893 190.591 162.848 188.1 159.62 183.111L124.641 129.593C121.378 124.597 121.132 118.983 124.086 117.054L186.67 76.1871C189.625 74.2575 194.67 76.7415 197.933 81.7375L232.905 135.249C236.14 140.245 236.414 145.858 233.431 147.788Z" fill="#F3F6FF"/>
<path d="M190.102 260.052L127.518 300.926C124.556 302.855 119.518 300.371 116.29 295.375L81.339 241.864C78.0761 236.868 77.8305 231.255 80.7847 229.318L143.369 188.451C146.323 186.521 151.368 189.005 154.596 194.002L189.547 247.513C192.817 252.509 193.063 258.122 190.102 260.052Z" fill="#F3F6FF"/>
<path d="M74.7852 286.296L86.714 288.113C106.595 244.706 126.477 201.299 146.358 157.892L193.652 186.479C190.047 192.203 186.799 198.144 183.927 204.267C175.95 221.384 170.921 239.724 169.051 258.515L183.604 261.82C191.196 249.513 202.016 231.858 215.026 210.225C226.913 190.451 231.537 182.48 229.249 172.846C227.039 163.548 218.815 157.478 202.459 145.725C191.431 137.803 179.819 130.726 167.725 124.555L105.197 124.225C103.351 127.5 101.801 130.933 100.565 134.484C95.2536 149.732 98.2218 160.278 97.2534 178.803C96.8251 186.984 95.7267 195.115 93.9695 203.117C91.4223 209.292 88.9804 215.873 86.742 222.869C80.1578 243.438 76.1417 264.742 74.7852 286.296H74.7852Z" fill="#472FC8"/>
<path d="M193.554 52.4556C191.14 62.111 185.597 68.0964 179.12 74.9099C161.199 93.7714 146.239 94.4591 144.253 105.377C143.46 109.707 144.52 116.605 154.954 126.744L160.792 134.098C156.491 138.729 148.779 145.585 137.503 148.777C113.385 155.584 89.2191 141.059 76.5044 125.488C73.8239 122.204 55.1448 98.5851 63.3546 72.468C64.6738 68.2578 69.6699 52.3995 85.5703 45.7264C90.6904 43.5957 96.23 42.6644 101.765 43.0038C105.666 43.2208 109.518 43.9788 113.21 45.2562C115.148 41.4602 117.424 37.8459 120.009 34.4572C126.963 25.2158 139.173 13.273 156.673 11.5608C161.297 11.1047 177.331 9.53295 187.548 20.7811C197.764 32.0293 194.614 48.1753 193.554 52.4556Z" fill="#00BEA1"/>
<path d="M94.0327 88.2561C97.0263 94.9573 100.878 101.241 105.491 106.949C111.231 114.029 119.757 124.267 134.142 127.965C138.394 129.06 146.99 130.561 158.161 127.404C148.734 126.785 139.488 124.52 130.844 120.709C109.835 111.412 98.5236 95.4906 94.0327 88.2561Z" fill="#0D0E56"/>
<path d="M70.3645 293.944C69.8089 295.814 69.7484 297.797 70.1891 299.698L119.799 299.796C119.503 298.427 118.847 297.163 117.897 296.133C115.883 294.028 113.028 293.726 109.751 293.6C98.1656 293.123 93.4152 295.368 89.184 292.379C88.1183 291.61 87.2186 290.634 86.5386 289.509L74.3712 288.197C72.4646 289.644 71.0626 291.655 70.3645 293.944Z" fill="#0D0E56"/>
<path d="M169.051 260.487L183.036 263.259C182.502 264.873 181.962 266.48 181.422 268.094C182.973 269.915 184.833 271.449 186.916 272.627C194.536 276.907 201.203 273.953 205.665 278.338C206.767 279.419 207.981 281.25 208.388 284.506C195.252 281.643 176.854 277.433 163.718 274.57C163.338 272.736 163.507 270.83 164.202 269.09C164.904 267.399 165.886 266.788 167.234 264.487C167.98 263.222 168.589 261.881 169.051 260.487Z" fill="#0D0E56"/>
<path d="M101.036 38.1762C111.476 38.1762 119.939 29.7128 119.939 19.2726C119.939 8.83235 111.476 0.368896 101.036 0.368896C90.5954 0.368896 82.132 8.83235 82.132 19.2726C82.132 29.7128 90.5954 38.1762 101.036 38.1762Z" fill="#472FC8"/>
<path d="M154.954 128.126C172.129 128.126 186.053 114.203 186.053 97.0273C186.053 79.8518 172.129 65.9282 154.954 65.9282C137.778 65.9282 123.855 79.8518 123.855 97.0273C123.855 114.203 137.778 128.126 154.954 128.126Z" fill="#ADFFEF"/>
<path d="M265.429 122.408C248.253 122.408 234.33 108.484 234.33 91.3086C234.33 74.133 248.253 60.2095 265.429 60.2095V122.408Z" fill="#ADFFEF"/>
<path d="M275.61 137.206L265.429 144.925V41.4181L275.61 33.6995V137.206Z" fill="#9F9DED"/>
<path d="M160.139 66.3632C159.642 63.5291 159.571 60.6366 159.929 57.7815C160.069 56.6377 160.631 52.2381 161.69 52.1679C162.287 52.1328 163.192 53.438 164.546 59.2971C165.491 58.0965 166.735 57.1649 168.153 56.5956C171.661 55.2343 176.026 56.357 177.976 58.9603C179.317 60.7637 178.741 62.2653 177.976 69.6612C176.98 79.4498 177.485 81.7373 176.061 82.2917C173.794 83.1618 169.486 78.5306 167.5 74.1801C166.609 72.207 166.084 70.0886 165.949 67.928L160.139 66.3632Z" fill="#0D0E56"/>
<path d="M155.375 127.102C152.868 129.614 152.713 133.63 155.017 136.329C157.266 137.314 159.669 137.903 162.118 138.069C164.406 138.224 166.104 138.343 167.732 137.452C169.991 136.203 170.146 134.042 171.942 129.853C174.938 122.976 177.906 121.046 177.043 119.896C175.899 118.373 169.858 120.709 165.949 123.123C164.115 124.253 162.423 125.601 160.911 127.137C162.712 123.783 163.36 121.912 162.855 121.523C162.219 120.99 159.725 122.85 155.375 127.102Z" fill="#0D0E56"/>
<path d="M150.898 59.1428C150.981 61.4786 151.351 63.7952 152 66.0405L160.139 66.3352C157.465 61.9221 156.225 56.7888 156.589 51.6417C157.368 41.6636 164.139 35.7132 165.542 34.5835C161.192 36.5913 157.497 39.7875 154.884 43.8038C152.005 48.3835 150.613 53.7411 150.898 59.1428Z" fill="#0D0E56"/>
<path d="M270.074 297.852L163.725 274.57L119.799 299.796L23.6527 298.049L121.258 310.778L169.233 282.619L270.074 297.852Z" fill="#5E5FA8"/>
<path d="M189.54 193.391L193.659 186.479L175.647 175.624C182.127 178.542 188.876 180.82 195.8 182.424C197.732 182.868 199.614 183.252 201.448 183.574L189.54 193.391Z" fill="#0D0E56"/>
<path d="M120.002 46.3369C119.571 47.2112 118.994 48.006 118.297 48.6875C114.312 52.4626 106.368 51.9083 102.741 47.8455C102.228 47.2631 100.601 45.4317 101.148 43.895C101.268 43.5508 101.482 43.247 101.765 43.0178C105.666 43.2348 109.518 43.9929 113.21 45.2703C115.148 41.4742 117.424 37.86 120.009 34.4712C121.715 36.1132 122.297 41.9653 120.002 46.3369Z" fill="#0D0E56"/>
<path d="M220.064 172.277C218.149 175.47 218.149 179.294 220.064 181.996C221.267 183.613 223.009 184.746 224.976 185.188C221.983 181.531 220.259 176.999 220.064 172.277V172.277Z" fill="#0D0E56"/>
<path d="M111.603 206.029C109.33 208.976 108.873 212.765 110.445 215.677C111.449 217.428 113.047 218.76 114.95 219.431C113.806 217.639 112.932 215.688 112.354 213.642C111.662 211.167 111.408 208.591 111.603 206.029Z" fill="#0D0E56"/>
</svg>
