<svg width="275" height="352" viewBox="0 0 275 352" fill="none" xmlns="http://www.w3.org/2000/svg">
<path d="M136.364 22.1942V217.883C136.364 227.126 128.871 234.618 119.629 234.618H20.6194C11.3849 234.607 3.90502 227.117 3.90503 217.883V22.1942C3.90503 12.9514 11.3977 5.45874 20.6405 5.45874H119.65C128.884 5.47036 136.364 12.9597 136.364 22.1942Z" fill="#0D0E56"/>
<path d="M141.276 17.2261V212.915C141.276 222.157 133.783 229.65 124.54 229.65H25.5313C16.2968 229.639 8.81689 222.149 8.81689 212.915V17.2261C8.82849 7.99981 16.305 0.523317 25.5313 0.511719H124.54C133.775 0.511711 141.264 7.99159 141.276 17.2261Z" fill="#F3F6FF"/>
<path d="M76.369 120.74C93.5446 120.74 107.468 107.128 107.468 90.3356C107.468 73.5437 93.5446 59.9312 76.369 59.9312C59.1934 59.9312 45.2699 73.5437 45.2699 90.3356C45.2699 107.128 59.1934 120.74 76.369 120.74Z" fill="#ADFFEF"/>
<path d="M243.057 279.078C260.232 279.078 274.156 265.154 274.156 247.979C274.156 230.803 260.232 216.879 243.057 216.879C225.881 216.879 211.958 230.803 211.958 247.979C211.958 265.154 225.881 279.078 243.057 279.078Z" fill="#ADFFEF"/>
<path d="M82.0739 317.776L95.6376 324.884C100.82 315.708 105.244 306.124 108.865 296.227C110.878 290.726 112.534 285.428 113.896 280.418L95.9323 266.763C91.3152 283.763 86.6957 300.767 82.0739 317.776Z" fill="#0D0E56"/>
<path d="M141.276 198.032V212.915C141.276 222.157 133.783 229.65 124.54 229.65H25.5313C16.2968 229.638 8.81689 222.149 8.81689 212.915V198.032H141.276Z" fill="#9F9DED"/>
<path d="M184.655 277.681C186.236 274.81 187.128 271.61 187.258 268.335L181.56 263.724L173.273 257.037L156.706 243.663C145.098 242.037 133.403 241.1 121.684 240.856C97.5672 240.337 78.453 239.923 74.1867 248.771C72.4185 252.441 72.7833 258.532 84.0806 273.71C94.3394 287.512 112.801 307.742 145.128 325.284L160.439 323.691C158.334 319.825 155.183 314.155 151.268 307.349C145.654 297.574 142.848 292.683 140.742 289.757C136.42 283.639 127.796 274.853 109.3 268.903C118.246 275.356 128.141 280.379 138.63 283.793C144.185 285.647 149.887 287.025 155.675 287.912C162.804 288.95 170.831 289.428 177.189 285.442C180.3 283.536 182.871 280.864 184.655 277.681Z" fill="#472FC8"/>
<path d="M164.635 192.643C167.933 186.77 175.806 172.736 188.9 171.248C199.685 170.027 210.133 177.753 214.785 184.538C226.777 202.003 215.789 235.762 187.258 268.3L153.478 244.961C153.932 235.165 155.19 225.424 157.239 215.834C159.443 205.491 160.755 199.562 164.635 192.643Z" fill="#00BEA1"/>
<path d="M148.244 247.67C151.528 248.736 164.088 252.357 177.49 246.266C190.661 240.274 195.959 228.836 198.218 224.016C205.158 209.217 202.646 195.457 201.594 190.854L148.244 247.67Z" fill="#0D0E56"/>
<path d="M106.409 181.282L114.127 174.918C114.787 180.265 117.973 201.323 134.624 211.799C138.132 213.995 145.69 218.76 153.45 216.423C160.081 214.43 164.137 208.059 166.425 204.494C168.116 201.842 168.221 199.681 171.091 194.523C173.568 190.082 174.95 188.643 175.912 187.78C178.175 185.706 180.939 184.255 183.932 183.57C189.889 182.328 196.345 184.629 199.615 188.117C207.088 196.074 200.766 213.188 195.755 221.798C187.026 236.737 167.982 250.238 148.237 247.712C123.004 244.449 101.146 215.644 106.409 181.282Z" fill="#00BEA1"/>
<path d="M165.014 332.048C165.629 333.901 165.75 335.882 165.365 337.795L115.79 339.465C116.041 338.086 116.656 336.8 117.573 335.739C119.362 333.74 121.916 333.248 125.635 332.933C135.845 332.119 139.571 334.034 143.5 331.445C144.907 330.487 146.057 329.198 146.847 327.691L160.825 326.407C162.779 327.801 164.244 329.775 165.014 332.048Z" fill="#0D0E56"/>
<path d="M95.6236 334.21C95.897 335.092 95.897 336.036 95.6236 336.918C95.1691 338.046 94.2784 338.941 93.1537 339.402L46.8418 331.887C47.6857 330.05 49.0307 328.489 50.7222 327.382C52.3992 326.33 54.8552 325.544 62.3633 326.617C71.4853 327.916 73.7588 329.908 76.7551 328.379C78.2637 327.6 80.1583 325.832 81.2178 321.214L94.9921 327.902C94.3684 328.754 94.0766 329.804 94.1711 330.856C94.3465 332.413 95.1816 332.617 95.6236 334.21Z" fill="#0D0E56"/>
<path d="M187.202 165.199C197.642 165.199 206.105 156.736 206.105 146.296C206.105 135.856 197.642 127.392 187.202 127.392C176.762 127.392 168.298 135.856 168.298 146.296C168.298 156.736 176.762 165.199 187.202 165.199Z" fill="#472FC8"/>
<rect x="52.1326" y="8.67236" width="45.8137" height="4.06983" rx="2.03492" fill="#B9BACE"/>
<path d="M75.0358 221.419C79.8645 221.419 83.779 217.505 83.779 212.676C83.779 207.848 79.8645 203.933 75.0358 203.933C70.2072 203.933 66.2927 207.848 66.2927 212.676C66.2927 217.505 70.2072 221.419 75.0358 221.419Z" fill="#5E5FA8"/>
<path d="M245.071 193.478C237.829 188.096 226.56 192.383 220.357 197.449C212.491 203.87 210.21 214.501 206.786 223.552C201.264 238.183 191.819 250.919 178.718 259.725C172.192 264.096 164.362 266.973 156.418 266.63C148.124 266.272 139.079 262.777 131.445 267.387C124.772 271.415 120.295 278.13 117.13 285.112C114.913 290.024 136.245 300.606 139.458 302.276C161.562 313.762 187.019 309.994 206.821 295.588C226.953 280.951 240.755 257.95 248.825 234.773C253.238 222.142 257.813 202.93 245.071 193.478Z" fill="#9F9DED"/>
<path d="M78.5583 137.16C95.4665 137.16 109.173 136.387 109.173 135.434C109.173 134.48 95.4665 133.708 78.5583 133.708C61.6501 133.708 47.9434 134.48 47.9434 135.434C47.9434 136.387 61.6501 137.16 78.5583 137.16Z" fill="#B9BACE"/>
<path d="M108.647 257.767C115.474 260.908 121.511 265.538 126.316 271.317C125.343 267.774 123.34 264.599 120.562 262.195C117.227 259.377 113.013 257.811 108.647 257.767L108.647 257.767Z" fill="#0D0E56"/>
<path d="M237.857 335.171L97.9883 340.237L0.242188 323.86L100.5 351.156L237.857 335.171Z" fill="#5E5FA8"/>
<rect x="46.6804" y="164.912" width="56.711" height="16.8407" rx="8.42034" fill="#9F9DED"/>
<path d="M96.5287 155.327C97.1953 154.316 104.991 156.688 109.784 162.652C112.521 166.171 114.077 170.463 114.232 174.918C114.813 177.384 113.725 179.942 111.545 181.233C109.954 182.005 108.101 182.017 106.5 181.268C105.437 181.116 104.453 180.623 103.693 179.865C102.458 178.532 102.879 176.939 101.707 173.837C101.437 173.14 101.128 172.458 100.781 171.796C101.63 176.181 101.097 176.644 100.893 176.707C100.367 176.904 99.3706 175.557 97.7847 173.423C96.2971 171.41 95.5533 170.406 95.406 169.697C94.6622 165.95 101.904 161.796 102.219 161.621C97.2304 157.334 96.1919 155.804 96.5287 155.327Z" fill="#0D0E56"/>
<path d="M196.724 171.824C195.074 174.21 193.059 176.323 190.752 178.083C184.521 182.798 175.673 185.191 174.143 182.952C173.603 182.16 173.743 180.447 176.873 176.371C182.37 171.744 189.761 170.052 196.724 171.824Z" fill="#0D0E56"/>
<path d="M79.0566 260.272C81.3292 259.271 82.8038 257.03 82.8247 254.546C82.7433 253.123 82.1502 251.777 81.1546 250.757C81.5116 254.074 80.7722 257.416 79.0496 260.272H79.0566Z" fill="#0D0E56"/>
</svg>
