<svg width="304" height="344" viewBox="0 0 304 344" fill="none" xmlns="http://www.w3.org/2000/svg">
<path d="M42.3166 281.293C59.4922 281.293 73.4157 267.369 73.4157 250.193C73.4157 233.018 59.4922 219.094 42.3166 219.094C25.141 219.094 11.2175 233.018 11.2175 250.193C11.2175 267.369 25.141 281.293 42.3166 281.293Z" fill="#9F9DED"/>
<path d="M286.38 144.616L223.817 185.49C220.856 187.42 215.818 184.936 212.555 179.94L177.61 126.421C174.348 121.432 174.102 115.819 177.056 113.882L239.64 73.0155C242.594 71.0858 247.633 73.5698 250.867 78.5659L285.819 132.077C289.075 137.073 289.334 142.687 286.38 144.616Z" fill="#F3F6FF"/>
<path d="M221.361 72.4612L158.777 113.328C155.823 115.265 150.778 112.774 147.55 107.777L112.598 54.2662C109.335 49.2701 109.09 43.6566 112.044 41.7269L174.628 0.860209C177.582 -1.06945 182.627 1.41455 185.89 6.41062L220.835 59.9219C224.07 64.9179 224.315 70.5315 221.361 72.4612Z" fill="#F3F6FF"/>
<path d="M177.442 186.241L114.858 227.115C111.897 229.044 106.858 226.56 103.596 221.564L68.6512 168.053C65.3883 163.057 65.1427 157.443 68.0968 155.507L130.681 114.64C133.635 112.71 138.673 115.194 141.908 120.19L176.86 173.702C180.143 178.698 180.396 184.311 177.442 186.241Z" fill="#F3F6FF"/>
<path d="M231.704 303.129C248.88 303.129 262.803 289.206 262.803 272.03C262.803 254.855 248.88 240.931 231.704 240.931C214.528 240.931 200.605 254.855 200.605 272.03C200.605 289.206 214.528 303.129 231.704 303.129Z" fill="#9F9DED"/>
<path d="M163.899 227.887C168.429 226.325 172.678 224.044 176.481 221.129C195.04 206.822 200.71 177.919 200.745 177.926C200.78 177.933 200.745 177.996 200.745 178.115C200.839 182.54 201.221 186.953 201.889 191.328C202.745 197.503 207.594 210.604 216.372 226.413L228.61 223.894C227.943 207.215 228.125 193.812 228.399 184.852C229.101 161.331 231.051 148.223 222.421 141.024C219.798 138.895 216.639 137.53 213.292 137.08C202.464 135.642 193.139 144.799 172.656 168.158C153.809 189.63 144.006 201.797 144.006 201.797C134.884 213.081 123.853 226.862 111.293 242.664C111.609 247.702 112.893 254.895 118.205 259.273C124.275 264.276 130.667 261.533 142.259 263.483C154.988 265.589 163.633 271.771 172.895 277.981C185.813 286.639 187.869 293.046 197.272 301.368C205.952 309.052 220.505 318.019 245.569 321.184L249.555 315.57C235.332 298.624 219.319 280.935 201.342 262.943C188.634 250.299 176.102 238.615 163.899 227.887Z" fill="#472FC8"/>
<path d="M90.944 281.293C108.12 281.293 122.043 267.369 122.043 250.193C122.043 233.018 108.12 219.094 90.944 219.094C73.7685 219.094 59.8449 233.018 59.8449 250.193C59.8449 267.369 73.7685 281.293 90.944 281.293Z" fill="#ADFFEF"/>
<path d="M216.926 228.736L229.122 225.746C229.367 227.353 229.606 228.953 229.823 230.56C232.534 231.524 235.404 231.962 238.279 231.851C244.777 231.571 253.295 227.339 257.639 228.799C259.105 229.29 260.993 230.406 262.782 233.156C249.71 236.321 231.325 240.573 218.26 243.738C217.116 242.253 216.436 240.464 216.302 238.594C216.218 236.756 216.807 235.788 217.004 233.128C217.132 231.665 217.106 230.193 216.926 228.736Z" fill="#0D0E56"/>
<path d="M251.639 317.682C255.748 321.623 260.536 324.787 265.771 327.022C276.676 331.59 282.956 327.822 288.548 332.755C290.236 334.284 291.511 336.215 292.253 338.368C278.823 337.667 259.975 336.572 246.552 335.898C246.08 334.901 245.86 333.802 245.913 332.699C246.075 330.257 247.661 329.19 247.45 327.233C247.279 326.099 246.694 325.069 245.808 324.342L251.639 317.682Z" fill="#0D0E56"/>
<path d="M163.766 91.1753C180.941 91.1753 194.865 77.2517 194.865 60.0762C194.865 42.9006 180.941 28.9771 163.766 28.9771C146.59 28.9771 132.667 42.9006 132.667 60.0762C132.667 77.2517 146.59 91.1753 163.766 91.1753Z" fill="#ADFFEF"/>
<path d="M140.042 86.7057C138.732 83.5277 138.403 80.0311 139.094 76.6644C140.021 72.4543 141.845 72.6367 142.883 67.5424C143.213 65.9074 143.368 64.2234 144.02 64.1322C144.673 64.0409 145.508 65.5355 145.915 66.7846C147.199 70.7562 144.238 72.8823 145.346 76.2574C145.536 76.8398 146.75 78.0959 149.136 80.615C152.146 83.7726 153.023 84.3129 154.251 86.1092C155.293 87.6508 156.082 89.3494 156.588 91.1404L141.95 90.0457C141.185 89.0109 140.545 87.8899 140.042 86.7057Z" fill="#0D0E56"/>
<path d="M129.664 321.001C146.839 321.001 160.763 307.078 160.763 289.902C160.763 272.727 146.839 258.803 129.664 258.803C112.488 258.803 98.5645 272.727 98.5645 289.902C98.5645 307.078 112.488 321.001 129.664 321.001Z" fill="#ADFFEF"/>
<path d="M80.4677 325.941C97.6433 325.941 111.567 312.018 111.567 294.842C111.567 277.667 97.6433 263.743 80.4677 263.743C63.2921 263.743 49.3686 277.667 49.3686 294.842C49.3686 312.018 63.2921 325.941 80.4677 325.941Z" fill="#9F9DED"/>
<path d="M31.6017 325.801C48.7773 325.801 62.7008 311.877 62.7008 294.702C62.7008 277.526 48.7773 263.603 31.6017 263.603C14.4261 263.603 0.502563 277.526 0.502563 294.702C0.502563 311.877 14.4261 325.801 31.6017 325.801Z" fill="#ADFFEF"/>
<path d="M71.0299 148.153C81.4701 148.153 89.9336 139.69 89.9336 129.249C89.9336 118.809 81.4701 110.346 71.0299 110.346C60.5897 110.346 52.1263 118.809 52.1263 129.249C52.1263 139.69 60.5897 148.153 71.0299 148.153Z" fill="#472FC8"/>
<path d="M141.017 205.79C135.453 197.279 129.193 188.774 123.629 180.27C127.699 180.557 144.483 181.273 157.002 169.477C170.236 157.001 169.632 139.115 169.267 129.235C168.629 110.991 160.847 97.5397 156.426 91.0771L141.789 89.9824C143.335 95.245 144.159 100.693 144.238 106.178C144.28 109.188 144.35 137.052 129.502 144.448C122.401 147.992 119.826 142.883 102.999 145.922C96.2208 147.15 91.372 149.009 85.3375 151.318C76.2373 154.817 67.5074 159.213 59.2765 164.439C52.2178 167.865 45.5839 172.104 39.5098 177.07C32.6823 182.648 11.0701 200.331 15.2732 213.782C17.1608 219.831 23.5252 222.617 33.2928 226.897C39.4887 229.613 46.8495 232.02 71.4369 235.184C78.6784 236.117 86.6707 237.023 95.2945 237.816L98.5995 229.395C99.0673 227.29 99.5351 225.185 100.003 223.08C102.265 223.093 104.507 223.504 106.627 224.294C113.475 226.862 116.738 232.651 117.693 234.525C121.026 230.953 124.429 227.108 127.846 222.989C132.828 217.066 137.179 211.305 141.017 205.79Z" fill="#00BEA1"/>
<path d="M39.4045 207.074C42.8779 205.453 55.2699 200.149 70.5598 203.012C82.8321 205.192 93.6038 212.475 100.199 223.052C94.3437 216.502 86.9642 211.497 78.7135 208.478C60.9396 201.861 44.4146 205.72 39.4045 207.074Z" fill="#0D0E56"/>
<path d="M2.83923 325.801L147.248 316.286L239.563 335.351L303.228 338.39L236.174 343.035L147.248 326.047L2.83923 325.801Z" fill="#5E5FA8"/>
<path d="M96.5225 228.308C102.117 231.001 107.498 234.116 112.619 237.626C117.882 241.219 123.79 245.815 123.538 246.439C123.285 247.064 115.742 242.875 115.665 243.113C115.63 243.205 116.865 243.998 119.938 245.794C121.777 248.109 122.962 249.836 122.745 250.2C122.198 251.007 114.795 245.001 114.724 245.134C116.474 246.499 117.968 248.162 119.138 250.046C119.84 251.232 120.801 253.155 120.464 253.52C120.275 253.716 119.594 253.52 117.082 251.127C114.03 248.692 112.002 247.317 111.728 247.716C111.314 248.327 115.307 252.579 114.97 253.141C114.5 253.898 105.21 246.573 92.8106 236.3C92.0745 234.834 91.9509 233.135 92.4667 231.578C93.0817 229.801 94.6563 228.532 96.5225 228.308Z" fill="#0D0E56"/>
<path d="M202.226 167.948C202.97 163.738 201.328 165.716 199.861 170.151C199.165 172.108 198.621 174.117 198.233 176.158C197.599 179.812 197.571 183.546 198.149 187.209C198.654 185.708 199.145 184.122 199.608 182.452C200.072 180.782 200.415 179.378 200.745 177.926C200.514 176.48 201.987 169.274 202.226 167.948Z" fill="#0D0E56"/>
<path d="M117.012 171.639L123.657 180.27C125.846 180.27 128.148 180.15 130.562 179.975C133.439 179.757 136.175 179.449 138.694 179.07C133.819 179.979 128.78 179.328 124.296 177.21C121.517 175.864 119.039 173.968 117.012 171.639Z" fill="#0D0E56"/>
<path d="M57.1364 165.534C63.4516 165.969 86.9794 167.26 89.2319 159.815C89.716 158.236 89.4284 155.605 85.3866 151.318C81.2747 152.932 76.9101 154.826 72.3631 157.065C67.1475 159.628 62.0654 162.455 57.1364 165.534H57.1364Z" fill="#0D0E56"/>
<path d="M181.905 216.196C178.287 218.549 174.303 220.285 170.116 221.333C168.029 221.894 165.884 222.217 163.724 222.294C160.315 222.392 156.919 221.849 153.711 220.694L163.899 227.887C170.77 225.528 176.955 221.513 181.905 216.196V216.196Z" fill="#0D0E56"/>
<path d="M193.006 269.609C194.444 273.034 197.524 275.3 200.836 275.356C202.857 275.335 204.802 274.588 206.317 273.251C201.591 273.514 196.91 272.225 192.984 269.581L193.006 269.609Z" fill="#0D0E56"/>
<path d="M219.817 148.041C218.014 151.29 218.14 155.107 220.14 157.745C221.395 159.324 223.176 160.4 225.157 160.777C223.758 159.177 222.598 157.383 221.712 155.451C220.648 153.112 220.006 150.603 219.817 148.041Z" fill="#0D0E56"/>
</svg>
