<svg width="122" height="138" viewBox="0 0 122 138" fill="none" xmlns="http://www.w3.org/2000/svg">
<path d="M16.9361 112.524C23.8063 112.524 29.3758 106.954 29.3758 100.084C29.3758 93.2139 23.8063 87.6445 16.9361 87.6445C10.0659 87.6445 4.49646 93.2139 4.49646 100.084C4.49646 106.954 10.0659 112.524 16.9361 112.524Z" fill="#9F9DED"/>
<path d="M114.562 57.8534L89.5363 74.2028C88.3518 74.9747 86.3365 73.9811 85.0314 71.9827L71.0536 50.5754C69.7485 48.5798 69.6502 46.3343 70.8319 45.5597L95.8656 29.213C97.0472 28.4411 99.0625 29.4347 100.356 31.4331L114.337 52.8376C115.639 54.8361 115.743 57.0815 114.562 57.8534Z" fill="#F3F6FF"/>
<path d="M88.5539 28.9912L63.5203 45.3379C62.3386 46.1126 60.3206 45.1162 59.0294 43.1178L45.0489 21.7132C43.7437 19.7148 43.6455 17.4694 44.8271 16.6975L69.8608 0.35085C71.0424 -0.421015 73.0605 0.572585 74.3657 2.57101L88.3434 23.9755C89.6374 25.9739 89.7356 28.2194 88.5539 28.9912Z" fill="#F3F6FF"/>
<path d="M70.9863 74.5032L45.9527 90.8527C44.7682 91.6245 42.7529 90.6309 41.4478 88.6325L27.47 67.228C26.1649 65.2296 26.0666 62.9841 27.2483 62.2095L52.2819 45.8628C53.4636 45.0909 55.4789 46.0845 56.7728 48.0829L70.7534 69.4874C72.0669 71.4859 72.168 73.7313 70.9863 74.5032Z" fill="#F3F6FF"/>
<path d="M92.6911 121.259C99.5613 121.259 105.131 115.689 105.131 108.819C105.131 101.949 99.5613 96.3792 92.6911 96.3792C85.8209 96.3792 80.2515 101.949 80.2515 108.819C80.2515 115.689 85.8209 121.259 92.6911 121.259Z" fill="#9F9DED"/>
<path d="M65.5692 91.1614C67.3811 90.5369 69.0805 89.6242 70.6017 88.4585C78.0257 82.7354 80.2935 71.1743 80.3076 71.1771C80.3216 71.1799 80.3076 71.2052 80.3076 71.2529C80.3452 73.0227 80.4981 74.7881 80.7651 76.5381C81.1075 79.008 83.047 84.2483 86.5583 90.572L91.4533 89.5643C91.1866 82.8926 91.2596 77.5317 91.3691 73.9474C91.6498 64.5391 92.43 59.296 88.9777 56.4163C87.9287 55.5646 86.6652 55.0188 85.3261 54.8389C80.9952 54.2635 77.265 57.9263 69.072 67.2701C61.533 75.8588 57.6119 80.7258 57.6119 80.7258C53.9631 85.2391 49.5509 90.7516 44.5267 97.0725C44.653 99.0877 45.1667 101.965 47.2914 103.716C49.7193 105.717 52.2763 104.62 56.9131 105.4C62.0046 106.242 65.4625 108.715 69.1675 111.199C74.3347 114.663 75.1571 117.225 78.9182 120.554C82.3902 123.627 88.2115 127.214 98.2373 128.48L99.8315 126.235C94.1422 119.457 87.7371 112.381 80.5461 105.184C75.4631 100.126 70.4501 95.453 65.5692 91.1614Z" fill="#472FC8"/>
<path d="M36.387 112.524C43.2573 112.524 48.8267 106.954 48.8267 100.084C48.8267 93.2139 43.2573 87.6445 36.387 87.6445C29.5168 87.6445 23.9474 93.2139 23.9474 100.084C23.9474 106.954 29.5168 112.524 36.387 112.524Z" fill="#ADFFEF"/>
<path d="M86.7801 91.501L91.6582 90.3053C91.7565 90.9481 91.8519 91.588 91.9389 92.2308C93.0232 92.6164 94.1711 92.7916 95.3211 92.7472C97.9202 92.635 101.328 90.9425 103.065 91.5263C103.652 91.7228 104.407 92.169 105.122 93.2693C99.8933 94.5351 92.5396 96.2361 87.3133 97.5019C86.8561 96.9078 86.5837 96.1923 86.5302 95.4445C86.4966 94.7092 86.7323 94.3218 86.8109 93.2581C86.8622 92.6729 86.8518 92.084 86.7801 91.501Z" fill="#0D0E56"/>
<path d="M100.665 127.08C102.309 128.656 104.224 129.922 106.318 130.816C110.68 132.643 113.192 131.136 115.429 133.109C116.104 133.72 116.614 134.493 116.911 135.354C111.539 135.073 104 134.636 98.6303 134.366C98.4413 133.967 98.3536 133.527 98.3749 133.086C98.4394 132.11 99.0738 131.683 98.9896 130.9C98.9213 130.446 98.6873 130.034 98.3328 129.743L100.665 127.08Z" fill="#0D0E56"/>
<path d="M65.5158 36.4769C72.386 36.4769 77.9555 30.9075 77.9555 24.0373C77.9555 17.167 72.386 11.5976 65.5158 11.5976C58.6456 11.5976 53.0762 17.167 53.0762 24.0373C53.0762 30.9075 58.6456 36.4769 65.5158 36.4769Z" fill="#ADFFEF"/>
<path d="M56.0261 34.689C55.5024 33.4178 55.3705 32.0192 55.6472 30.6725C56.0177 28.9884 56.7474 29.0614 57.1628 27.0237C57.2948 26.3697 57.3565 25.6961 57.6175 25.6596C57.8786 25.6231 58.2126 26.2209 58.3754 26.7205C58.889 28.3092 57.7045 29.1596 58.148 30.5097C58.2238 30.7427 58.7094 31.2451 59.6637 32.2527C60.8678 33.5158 61.2186 33.7319 61.7098 34.4504C62.1268 35.067 62.4423 35.7465 62.6445 36.4629L56.7895 36.025C56.4836 35.6111 56.2274 35.1627 56.0261 34.689Z" fill="#0D0E56"/>
<path d="M51.875 128.407C58.7452 128.407 64.3146 122.838 64.3146 115.968C64.3146 109.097 58.7452 103.528 51.875 103.528C45.0047 103.528 39.4353 109.097 39.4353 115.968C39.4353 122.838 45.0047 128.407 51.875 128.407Z" fill="#ADFFEF"/>
<path d="M32.1966 130.383C39.0668 130.383 44.6363 124.814 44.6363 117.944C44.6363 111.073 39.0668 105.504 32.1966 105.504C25.3264 105.504 19.757 111.073 19.757 117.944C19.757 124.814 25.3264 130.383 32.1966 130.383Z" fill="#9F9DED"/>
<path d="M12.6502 130.327C19.5204 130.327 25.0898 124.758 25.0898 117.888C25.0898 111.017 19.5204 105.448 12.6502 105.448C5.77993 105.448 0.21051 111.017 0.21051 117.888C0.21051 124.758 5.77993 130.327 12.6502 130.327Z" fill="#ADFFEF"/>
<path d="M28.4214 59.268C32.5975 59.268 35.9829 55.8826 35.9829 51.7065C35.9829 47.5304 32.5975 44.145 28.4214 44.145C24.2454 44.145 20.86 47.5304 20.86 51.7065C20.86 55.8826 24.2454 59.268 28.4214 59.268Z" fill="#472FC8"/>
<path d="M56.4163 82.3228C54.1905 78.9182 51.6868 75.5164 49.4611 72.1146C51.089 72.2297 57.8028 72.516 62.8101 67.7978C68.1037 62.8073 67.8623 55.6528 67.7164 51.7009C67.4609 44.4033 64.3482 39.0227 62.58 36.4376L56.725 35.9998C57.3434 38.1048 57.6729 40.2841 57.7046 42.4778C57.7214 43.6819 57.7495 54.8276 51.8103 57.786C48.9699 59.2034 47.9398 57.1601 41.2091 58.3754C38.4978 58.8666 36.5583 59.6104 34.1445 60.5338C30.5044 61.9337 27.0124 63.6919 23.7201 65.7825C20.8966 67.1526 18.243 68.8482 15.8134 70.8347C13.0824 73.0661 4.43752 80.1392 6.11878 85.5198C6.8738 87.9392 9.41955 89.0535 13.3266 90.7656C15.805 91.8519 18.7493 92.8146 28.5842 94.0804C31.4808 94.4538 34.6778 94.8158 38.1273 95.133L39.4493 91.7649C39.6364 90.9228 39.8235 90.0808 40.0106 89.2388C40.9155 89.2441 41.8123 89.4084 42.6602 89.7243C45.3997 90.7516 46.7048 93.0672 47.0865 93.8166C48.4198 92.388 49.781 90.8498 51.1479 89.2023C53.1408 86.8333 54.881 84.529 56.4163 82.3228Z" fill="#00BEA1"/>
<path d="M15.7713 82.8365C17.1607 82.1881 22.1174 80.0662 28.2334 81.2114C33.1423 82.0837 37.451 84.9969 40.0892 89.2275C37.747 86.6077 34.7952 84.6054 31.4949 83.3979C24.3853 80.7511 17.7753 82.2948 15.7713 82.8365Z" fill="#0D0E56"/>
<path d="M1.14514 130.327L58.9087 126.521L95.8347 134.147L121.301 135.363L94.479 137.221L58.9087 130.425L1.14514 130.327Z" fill="#5E5FA8"/>
<path d="M38.6185 91.3298C40.8563 92.407 43.0088 93.653 45.0572 95.0572C47.1623 96.4943 49.5256 98.3327 49.4246 98.5825C49.3235 98.8323 46.3063 97.1567 46.2754 97.2521C46.2613 97.2886 46.7553 97.6058 47.9847 98.3243C48.7201 99.2505 49.1944 99.941 49.1074 100.087C48.8885 100.41 45.9273 98.0071 45.8993 98.0605C46.5989 98.6063 47.1966 99.2714 47.6647 100.025C47.9454 100.5 48.3299 101.269 48.1952 101.415C48.1194 101.493 47.8472 101.415 46.8423 100.457C45.6214 99.4835 44.8102 98.9334 44.7008 99.0934C44.5352 99.3375 46.1322 101.038 45.9975 101.263C45.8095 101.566 42.0933 98.6359 37.1337 94.5267C36.8393 93.9402 36.7898 93.2608 36.9962 92.6378C37.2421 91.9273 37.872 91.4195 38.6185 91.3298Z" fill="#0D0E56"/>
<path d="M80.8998 67.1859C81.1974 65.5018 80.5406 66.2933 79.954 68.0672C79.6755 68.8502 79.4578 69.6534 79.3028 70.4698C79.0492 71.9316 79.0379 73.4251 79.2691 74.8905C79.4712 74.2899 79.6677 73.6555 79.8529 72.9875C80.0382 72.3195 80.1757 71.7581 80.3076 71.1771C80.215 70.5989 80.8044 67.7164 80.8998 67.1859Z" fill="#0D0E56"/>
<path d="M46.8143 68.6623L49.4724 72.1146C50.3481 72.1146 51.2687 72.0669 52.2342 71.9967C53.385 71.9097 54.4796 71.7862 55.4873 71.6346C53.537 71.9983 51.5217 71.7381 49.7278 70.8908C48.6162 70.3522 47.6251 69.5942 46.8143 68.6623Z" fill="#0D0E56"/>
<path d="M22.864 66.2203C25.3901 66.3944 34.8012 66.9108 35.7022 63.9328C35.8959 63.3013 35.7808 62.2488 34.1641 60.5338C32.5193 61.1794 30.7735 61.9372 28.9547 62.8326C26.8685 63.858 24.8356 64.9888 22.864 66.2203H22.864Z" fill="#0D0E56"/>
<path d="M72.7714 86.4853C71.3242 87.4264 69.7307 88.1207 68.056 88.5399C67.221 88.7645 66.3632 88.8935 65.499 88.9244C64.1357 88.9636 62.7771 88.7465 61.4938 88.2844L65.5692 91.1614C68.3177 90.2181 70.7914 88.6121 72.7714 86.4853V86.4853Z" fill="#0D0E56"/>
<path d="M77.2117 107.851C77.7871 109.22 79.0192 110.127 80.344 110.149C81.1521 110.141 81.9301 109.842 82.5361 109.307C80.646 109.412 78.7734 108.897 77.2032 107.839L77.2117 107.851Z" fill="#0D0E56"/>
<path d="M87.9364 59.2231C87.215 60.5226 87.2656 62.0495 88.0655 63.1048C88.5676 63.7363 89.2798 64.1666 90.0723 64.3174C89.5126 63.6774 89.0485 62.9599 88.6942 62.187C88.2685 61.2515 88.012 60.248 87.9364 59.2231Z" fill="#0D0E56"/>
</svg>
