<svg width="121" height="150" viewBox="0 0 121 150" fill="none" xmlns="http://www.w3.org/2000/svg">
<path d="M60.1345 4.54025V90.6433C60.1345 94.7101 56.8377 98.0069 52.7709 98.0069H9.20686C5.14368 98.0017 1.85254 94.7064 1.85254 90.6433V4.54025C1.85254 0.473449 5.14933 -2.82334 9.21613 -2.82334H52.7802C56.8433 -2.81823 60.1345 0.477063 60.1345 4.54025Z" fill="#0D0E56"/>
<path d="M62.2956 2.35432V88.4573C62.2956 92.5241 58.9988 95.8209 54.932 95.8209H11.368C7.30482 95.8158 4.01367 92.5205 4.01367 88.4573V2.35432C4.01878 -1.70524 7.30843 -4.9949 11.368 -5H54.932C58.9952 -5 62.2905 -1.70886 62.2956 2.35432Z" fill="#F3F6FF"/>
<path d="M33.7367 47.9005C41.294 47.9005 47.4203 41.911 47.4203 34.5225C47.4203 27.1341 41.294 21.1446 33.7367 21.1446C26.1795 21.1446 20.0531 27.1341 20.0531 34.5225C20.0531 41.911 26.1795 47.9005 33.7367 47.9005Z" fill="#ADFFEF"/>
<path d="M107.079 117.569C114.636 117.569 120.763 111.443 120.763 103.885C120.763 96.3281 114.636 90.2018 107.079 90.2018C99.522 90.2018 93.3956 96.3281 93.3956 103.885C93.3956 111.443 99.522 117.569 107.079 117.569Z" fill="#ADFFEF"/>
<path d="M36.2468 134.596L42.2149 137.724C44.4952 133.686 46.4417 129.469 48.0347 125.115C48.9208 122.694 49.6495 120.363 50.2484 118.159L42.3446 112.15C40.313 119.63 38.2804 127.112 36.2468 134.596Z" fill="#0D0E56"/>
<path d="M62.2956 81.9088V88.4573C62.2956 92.5241 58.9988 95.8209 54.932 95.8209H11.368C7.30482 95.8158 4.01367 92.5205 4.01367 88.4573V81.9088H62.2956Z" fill="#9F9DED"/>
<path d="M81.3824 116.955C82.0783 115.691 82.4705 114.283 82.5278 112.842L80.0208 110.814L76.3745 107.871L69.085 101.987C63.9774 101.271 58.8319 100.859 53.6755 100.752C43.0639 100.523 34.6537 100.341 32.7765 104.234C31.9985 105.849 32.159 108.529 37.1298 115.207C41.6437 121.28 49.7668 130.181 63.9907 137.9L70.7275 137.199C69.8013 135.498 68.415 133.003 66.6922 130.008C64.2223 125.708 62.9873 123.556 62.0611 122.268C60.1592 119.576 56.3647 115.71 48.2262 113.092C52.1627 115.931 56.5165 118.142 61.1317 119.644C63.5756 120.46 66.0844 121.066 68.6312 121.456C71.768 121.913 75.3001 122.123 78.0973 120.369C79.4664 119.531 80.5974 118.355 81.3824 116.955Z" fill="#472FC8"/>
<path d="M72.5739 79.5377C74.025 76.9535 77.4891 70.7786 83.2503 70.124C87.9957 69.5868 92.5929 72.9861 94.6399 75.9717C99.9164 83.6563 95.0814 98.5101 82.5278 112.827L67.6648 102.558C67.8644 98.2476 68.4179 93.9612 69.3197 89.7417C70.2891 85.1908 70.8665 82.5819 72.5739 79.5377Z" fill="#00BEA1"/>
<path d="M65.3615 103.75C66.8064 104.219 72.3329 105.812 78.23 103.132C84.0251 100.495 86.3562 95.4628 87.3503 93.3417C90.4038 86.8302 89.2985 80.7757 88.8354 78.7504L65.3615 103.75Z" fill="#0D0E56"/>
<path d="M46.954 74.5391L50.3502 71.7388C50.6404 74.0914 52.0422 83.3569 59.3687 87.9664C60.9124 88.9328 64.2376 91.0292 67.6523 90.0011C70.57 89.1242 72.3545 86.3208 73.361 84.7524C74.1051 83.5853 74.1514 82.6344 75.4142 80.3651C76.5041 78.4108 77.1123 77.7778 77.5353 77.3981C78.5314 76.4855 79.7474 75.8472 81.0643 75.5456C83.6855 74.9991 86.526 76.0118 87.9647 77.5463C91.2529 81.0475 88.4711 88.5778 86.2666 92.3661C82.4258 98.9393 74.0465 104.88 65.3584 103.768C54.2559 102.332 44.6384 89.6584 46.954 74.5391Z" fill="#00BEA1"/>
<path d="M72.7405 140.876C73.0109 141.691 73.0641 142.563 72.8949 143.405L51.082 144.14C51.1923 143.533 51.4631 142.967 51.8662 142.5C52.6535 141.62 53.7774 141.404 55.4137 141.265C59.906 140.907 61.5454 141.75 63.2744 140.611C63.8934 140.189 64.3992 139.622 64.7471 138.959L70.8973 138.394C71.757 139.007 72.4018 139.876 72.7405 140.876Z" fill="#0D0E56"/>
<path d="M42.2086 141.827C42.3289 142.215 42.3289 142.631 42.2086 143.019C42.0087 143.515 41.6167 143.909 41.1218 144.112L20.7446 140.805C21.1159 139.997 21.7077 139.31 22.452 138.823C23.1899 138.36 24.2705 138.014 27.5741 138.487C31.5878 139.058 32.5881 139.935 33.9065 139.261C34.5703 138.919 35.4039 138.141 35.8701 136.109L41.9308 139.052C41.6563 139.426 41.5279 139.889 41.5695 140.351C41.6467 141.037 42.0141 141.126 42.2086 141.827Z" fill="#0D0E56"/>
<path d="M82.503 67.4626C87.0967 67.4626 90.8206 63.7387 90.8206 59.145C90.8206 54.5513 87.0967 50.8274 82.503 50.8274C77.9093 50.8274 74.1854 54.5513 74.1854 59.145C74.1854 63.7387 77.9093 67.4626 82.503 67.4626Z" fill="#472FC8"/>
<rect x="23.0726" y="-1.40929" width="20.158" height="1.79073" rx="0.895363" fill="#B9BACE"/>
<path d="M33.1501 92.1993C35.2747 92.1993 36.997 90.477 36.997 88.3524C36.997 86.2277 35.2747 84.5054 33.1501 84.5054C31.0254 84.5054 29.3031 86.2277 29.3031 88.3524C29.3031 90.477 31.0254 92.1993 33.1501 92.1993Z" fill="#5E5FA8"/>
<path d="M107.965 79.9051C104.779 77.537 99.8207 79.4234 97.0914 81.6526C93.6303 84.4776 92.6269 89.1551 91.1202 93.1379C88.6904 99.5753 84.5347 105.179 78.7704 109.054C75.8991 110.977 72.4535 112.243 68.9584 112.092C65.3091 111.934 61.3293 110.397 57.9702 112.425C55.034 114.197 53.0642 117.152 51.6718 120.224C50.6961 122.385 60.082 127.041 61.4961 127.776C71.2216 132.83 82.4229 131.172 91.1357 124.834C99.9936 118.393 106.067 108.273 109.617 98.0748C111.559 92.5173 113.572 84.0639 107.965 79.9051Z" fill="#9F9DED"/>
<path d="M34.6999 55.1252C42.1395 55.1252 48.1705 54.7851 48.1705 54.3656C48.1705 53.9462 42.1395 53.6061 34.6999 53.6061C27.2604 53.6061 21.2294 53.9462 21.2294 54.3656C21.2294 54.7851 27.2604 55.1252 34.6999 55.1252Z" fill="#B9BACE"/>
<path d="M47.939 108.192C50.9429 109.574 53.5993 111.612 55.7132 114.154C55.2852 112.595 54.4041 111.198 53.1815 110.141C51.714 108.901 49.86 108.212 47.939 108.192L47.939 108.192Z" fill="#0D0E56"/>
<path d="M104.791 142.25L43.2491 144.479L0.240845 137.273L44.3544 149.283L104.791 142.25Z" fill="#5E5FA8"/>
<rect x="20.6736" y="67.336" width="24.9528" height="7.4099" rx="3.70495" fill="#9F9DED"/>
<path d="M42.6069 63.1186C42.9002 62.674 46.3304 63.7175 48.4391 66.3419C49.6433 67.89 50.3283 69.7786 50.3966 71.7388C50.6521 72.8239 50.1732 73.9492 49.2141 74.5175C48.5142 74.8568 47.6987 74.8625 46.9942 74.5329C46.5267 74.4657 46.0935 74.2491 45.7592 73.9154C45.2158 73.3288 45.4011 72.6279 44.8855 71.2633C44.7666 70.9564 44.6306 70.6564 44.4779 70.3648C44.8515 72.2945 44.6169 72.4983 44.5273 72.5261C44.2958 72.6125 43.8573 72.0197 43.1596 71.0811C42.505 70.195 42.1778 69.7535 42.1129 69.4417C41.7857 67.793 44.9719 65.9652 45.1108 65.888C42.9157 64.0016 42.4587 63.3285 42.6069 63.1186Z" fill="#0D0E56"/>
<path d="M86.6928 70.3772C85.967 71.4274 85.0803 72.3568 84.0654 73.1312C81.3237 75.206 77.4304 76.2588 76.7573 75.2739C76.5196 74.925 76.5814 74.1717 77.9584 72.3779C80.3773 70.3424 83.629 69.5976 86.6928 70.3772Z" fill="#0D0E56"/>
<path d="M34.9192 109.295C35.9192 108.854 36.568 107.868 36.5772 106.775C36.5414 106.149 36.2804 105.557 35.8424 105.108C35.9994 106.567 35.6741 108.038 34.9161 109.295H34.9192Z" fill="#0D0E56"/>
</svg>
