<svg width="148" height="102" viewBox="0 0 148 102" fill="none" xmlns="http://www.w3.org/2000/svg">
<path d="M122.16 68.3539L87.0474 60.9828C85.3898 60.6351 84.5229 58.0819 85.1206 55.2883L91.4224 25.2654C92.0107 22.4623 93.8327 20.4736 95.4879 20.8189L130.603 28.1877C132.263 28.5378 133.127 31.0933 132.541 33.8941L126.237 63.9193C125.646 66.7154 123.817 68.7016 122.16 68.3539Z" fill="#F3F6FF"/>
<path d="M53.4763 81.2424L23.4359 100.858C22.0179 101.788 19.5962 100.592 18.0469 98.1976L1.25673 72.5089C-0.30945 70.1108 -0.427335 67.4163 0.99065 66.49L31.0311 46.874C32.449 45.9478 34.8707 47.1401 36.4369 49.5382L53.2237 75.2236C54.7764 77.6217 54.9078 80.3162 53.4763 81.2424Z" fill="#F3F6FF"/>
<path d="M92.3256 41.1398C90.0069 45.3166 86.6931 47.403 82.8438 49.7574C72.1915 56.2761 65.1699 54.7363 62.8927 59.5519C61.9872 61.4607 61.6216 64.7904 65.1997 70.7878L66.9929 74.9226C64.4232 76.5355 59.9961 78.756 54.3713 78.8354C42.3439 78.995 32.9438 69.2582 28.9831 60.4594C28.1482 58.6038 22.422 45.3324 29.4731 34.2433C30.6078 32.4552 34.8943 25.7232 43.0955 24.6046C45.7341 24.2529 48.4182 24.5093 50.9425 25.3543C52.7241 25.9395 54.4157 26.7695 55.9689 27.8204C57.3392 26.3012 58.8433 24.9082 60.463 23.6582C64.8352 20.2374 71.9797 16.217 80.3063 17.5973C82.507 17.9603 90.1362 19.2235 93.4757 25.7079C96.8152 32.1923 93.3486 39.2869 92.3256 41.1398Z" fill="#00BEA1"/>
<path d="M41.7355 45.3746C42.2909 48.8535 43.2962 52.2454 44.7259 55.4652C46.5076 59.4609 49.1886 65.2667 55.3986 68.7683C57.2341 69.8041 61.0329 71.5682 66.6046 71.492C62.3107 70.0341 58.3056 67.8351 54.7709 64.9946C46.1853 58.0739 42.9189 49.2868 41.7355 45.3746Z" fill="#1F2438"/>
<path d="M51.2039 23.0253C56.0444 24.3223 61.0199 21.4497 62.3169 16.6092C63.6139 11.7687 60.7413 6.79319 55.9008 5.49617C51.0603 4.19915 46.0848 7.07174 44.7878 11.9123C43.4908 16.7528 46.3633 21.7283 51.2039 23.0253Z" fill="#624AE5"/>
<path d="M71.7176 38.941C71.4657 40.0342 71.0394 44.09 71.0614 45.2116L74.7987 46.3595C74.1072 43.9812 74.4799 38.5113 75.288 36.1701C76.8887 31.6406 80.7675 29.7229 81.5585 29.3735C79.2919 29.7639 77.1818 30.7868 75.4712 32.3243C73.5677 34.09 72.2566 36.4011 71.7176 38.941Z" fill="#1F2438"/>
<path d="M58.984 29.1653C58.6753 29.5171 58.3093 29.814 57.9014 30.0434C55.5844 31.2985 51.9705 30.0547 50.7932 27.7203C50.6281 27.3866 50.1008 26.3353 50.5455 25.6908C50.644 25.5461 50.7809 25.4319 50.9408 25.3608C52.7224 25.946 54.4141 26.776 55.9672 27.827C57.3375 26.3077 58.8416 24.9147 60.4613 23.6647C61.0479 24.6379 60.5909 27.4235 58.984 29.1653Z" fill="#1F2438"/>
<rect x="53.9738" y="43.8564" width="68.9357" height="39.2602" rx="3.13344" fill="#533DCC"/>
<mask id="mask0" mask-type="alpha" maskUnits="userSpaceOnUse" x="53" y="43" width="70" height="41">
<rect x="53.9738" y="43.8564" width="68.9357" height="39.2602" rx="3.13344" fill="white"/>
</mask>
<g mask="url(#mask0)">
<path fill-rule="evenodd" clip-rule="evenodd" d="M47.2734 48.6334L66.1955 15.8595L128.928 52.0784L110.006 84.8523C110.006 84.8523 111.106 68.6132 89.3112 70.6604C67.5165 72.7075 47.2734 48.6334 47.2734 48.6334Z" fill="#ADFFEF"/>
<path fill-rule="evenodd" clip-rule="evenodd" d="M119.198 30.3628L149.009 71.3938L81.4581 120.472L51.6473 79.441C51.6473 79.441 66.7015 64.0227 87.9698 59.1748C109.238 54.3268 119.198 30.3628 119.198 30.3628Z" fill="#624AE5"/>
<path opacity="0.4" fill-rule="evenodd" clip-rule="evenodd" d="M115.703 79.7487C117.345 79.7487 118.676 78.4201 118.676 76.7812C118.676 75.1422 117.345 73.8136 115.703 73.8136C114.062 73.8136 112.731 75.1422 112.731 76.7812C112.731 78.4201 114.062 79.7487 115.703 79.7487Z" fill="white"/>
<path fill-rule="evenodd" clip-rule="evenodd" d="M112.1 79.7487C113.742 79.7487 115.073 78.4201 115.073 76.7812C115.073 75.1422 113.742 73.8136 112.1 73.8136C110.459 73.8136 109.128 75.1422 109.128 76.7812C109.128 78.4201 110.459 79.7487 112.1 79.7487Z" fill="white"/>
</g>
<path d="M53.6679 71.2192C52.1937 72.0725 51.6225 73.9154 52.3557 75.4529C53.2761 76.189 54.3168 76.7604 55.4319 77.1419C56.4733 77.4977 57.2458 77.764 58.1113 77.553C59.3141 77.2546 59.6541 76.2718 61.0074 74.5527C63.2509 71.7366 64.8668 71.2107 64.6096 70.5699C64.2685 69.7218 61.1771 70.0546 59.0651 70.6882C58.0739 70.9843 57.1222 71.399 56.2305 71.9232C57.4822 70.5919 58.0151 69.8048 57.8291 69.562C57.6004 69.2357 56.2133 69.7881 53.6679 71.2192Z" fill="#1F2438"/>
<path d="M78.2532 44.6698C78.3745 43.294 78.701 41.944 79.2217 40.6648C79.4289 40.1519 80.2357 38.1818 80.7357 38.2809C81.0166 38.3387 81.2741 39.0563 81.1741 41.9411C81.7615 41.5018 82.4538 41.2244 83.182 41.1366C84.9778 40.9414 86.8619 42.0041 87.4429 43.4535C87.8403 44.4561 87.3869 45.0808 86.1135 48.4148C84.4355 52.8295 84.3855 53.9529 83.6562 54.0329C82.4973 54.1548 81.0751 51.4723 80.6948 49.2085C80.527 48.183 80.5465 47.1356 80.7526 46.1171L78.2532 44.6698Z" fill="#1F2438"/>
</svg>
