<svg width="110" height="125" viewBox="0 0 110 125" fill="none" xmlns="http://www.w3.org/2000/svg">
<path d="M44.6614 69.3555L19.6278 85.7022C18.4461 86.4741 16.4308 85.4805 15.1369 83.482L1.15915 62.0775C-0.146001 60.0791 -0.244239 57.8337 0.934609 57.0618L25.9683 40.7123C27.1527 39.9405 29.168 40.9369 30.4732 42.9325L44.4509 64.3398C45.7505 66.3354 45.8431 68.5837 44.6614 69.3555Z" fill="#F3F6FF"/>
<path d="M93.1149 59.035L68.0812 75.3817C66.8995 76.1563 64.8815 75.1599 63.5903 73.1643L49.5985 51.757C48.2934 49.7586 48.1952 47.5131 49.3768 46.7413L74.4105 30.3946C75.5921 29.6227 77.6102 30.6163 78.9154 32.6148L92.9044 54.0193C94.1983 56.0177 94.3077 58.2631 93.1149 59.035Z" fill="#F3F6FF"/>
<path d="M75.783 103.941L50.7493 120.29C49.5648 121.062 47.5496 120.068 46.2584 118.07L32.2779 96.6655C30.9727 94.667 30.8745 92.4216 32.0561 91.647L57.0898 75.3003C58.2715 74.5284 60.2895 75.522 61.5806 77.5204L75.5612 98.9249C76.8692 100.923 76.9674 103.169 75.783 103.941Z" fill="#F3F6FF"/>
<path d="M29.6564 114.438L34.4279 115.165C42.3804 97.8022 50.333 80.4395 58.2855 63.0767L77.2032 74.5116C75.7612 76.8009 74.462 79.1772 73.313 81.6267C70.1224 88.4733 68.1106 95.8095 67.3627 103.326L73.1839 104.648C76.2208 99.7249 80.5489 92.663 85.7527 84.0097C90.5074 76.1002 92.357 72.9117 91.442 69.058C90.5579 65.339 87.2683 62.9111 80.7257 58.2098C76.3145 55.0411 71.6701 52.2103 66.8322 49.7417L41.821 49.6098C41.0826 50.9198 40.4626 52.2931 39.9685 53.7133C37.8437 59.8124 39.031 64.031 38.6437 71.4409C38.4723 74.7132 38.033 77.9659 37.3301 81.1664C36.3112 83.6364 35.3345 86.2692 34.4391 89.0675C31.8054 97.2949 30.199 105.816 29.6564 114.438H29.6564Z" fill="#472FC8"/>
<path d="M77.1639 20.9021C76.1984 24.7642 73.981 27.1584 71.3904 29.8838C64.2219 37.4284 58.2378 37.7035 57.4435 42.0708C57.1263 43.8026 57.5502 46.5616 61.7238 50.6174L64.0591 53.559C62.3385 55.4114 59.2539 58.1536 54.7434 59.4307C45.0965 62.1533 35.4299 56.3433 30.344 50.115C29.2718 48.8015 21.8002 39.3538 25.0841 28.907C25.6118 27.2229 27.6102 20.8796 33.9704 18.2104C36.0184 17.3581 38.2343 16.9856 40.4484 17.1213C42.0088 17.2081 43.5495 17.5114 45.0263 18.0223C45.8017 16.5039 46.7119 15.0582 47.7461 13.7027C50.5276 10.0062 55.4114 5.22901 62.4115 4.54416C64.2612 4.36172 70.6747 3.733 74.7613 8.23227C78.848 12.7315 77.5878 19.1899 77.1639 20.9021Z" fill="#00BEA1"/>
<path d="M37.3553 35.2223C38.5528 37.9027 40.0935 40.4162 41.9388 42.6995C44.2348 45.5316 47.645 49.6267 53.3989 51.1058C55.0998 51.5437 58.5381 52.1443 63.0065 50.8813C59.2358 50.6339 55.5376 49.7276 52.0797 48.2036C43.6762 44.4846 39.1517 38.116 37.3553 35.2223Z" fill="#0D0E56"/>
<path d="M27.8882 117.497C27.6659 118.246 27.6417 119.039 27.818 119.799L47.6619 119.838C47.5437 119.291 47.281 118.785 46.9013 118.373C46.0957 117.531 44.9534 117.41 43.6426 117.36C39.0086 117.169 37.1084 118.067 35.4159 116.871C34.9897 116.564 34.6298 116.173 34.3578 115.724L29.4908 115.199C28.7282 115.777 28.1674 116.582 27.8882 117.497Z" fill="#0D0E56"/>
<path d="M67.3627 104.115L72.9566 105.223C72.7433 105.869 72.5272 106.512 72.311 107.157C72.9317 107.886 73.6756 108.499 74.5087 108.97C77.5569 110.683 80.2233 109.501 82.0085 111.255C82.4491 111.687 82.9347 112.42 83.0975 113.722C77.8432 112.577 70.4838 110.893 65.2295 109.748C65.0777 109.014 65.145 108.252 65.4232 107.556C65.7039 106.879 66.0968 106.635 66.6357 105.715C66.9343 105.209 67.178 104.672 67.3627 104.115Z" fill="#0D0E56"/>
<path d="M40.1566 15.1903C44.3326 15.1903 47.718 11.8049 47.718 7.62882C47.718 3.45273 44.3326 0.0673523 40.1566 0.0673523C35.9805 0.0673523 32.5951 3.45273 32.5951 7.62882C32.5951 11.8049 35.9805 15.1903 40.1566 15.1903Z" fill="#472FC8"/>
<path d="M61.7238 51.1704C68.5941 51.1704 74.1635 45.601 74.1635 38.7308C74.1635 31.8605 68.5941 26.2911 61.7238 26.2911C54.8536 26.2911 49.2842 31.8605 49.2842 38.7308C49.2842 45.601 54.8536 51.1704 61.7238 51.1704Z" fill="#ADFFEF"/>
<path d="M105.914 48.8829C99.0435 48.8829 93.4741 43.3134 93.4741 36.4432C93.4741 29.573 99.0435 24.0036 105.914 24.0036V48.8829Z" fill="#ADFFEF"/>
<path d="M109.986 54.8024L105.914 57.8898V16.487L109.986 13.3996V54.8024Z" fill="#9F9DED"/>
<path d="M63.7981 26.4651C63.599 25.3315 63.5706 24.1745 63.7139 23.0324C63.77 22.5749 63.9945 20.8151 64.4184 20.787C64.6569 20.773 65.019 21.295 65.5607 23.6387C65.9387 23.1584 66.4362 22.7858 67.0034 22.5581C68.4068 22.0136 70.1526 22.4627 70.9329 23.504C71.469 24.2253 71.2388 24.826 70.9329 27.7843C70.5343 31.6998 70.7364 32.6148 70.1666 32.8365C69.2601 33.1846 67.5367 31.3321 66.7424 29.5919C66.3861 28.8026 66.1759 27.9553 66.1221 27.091L63.7981 26.4651Z" fill="#0D0E56"/>
<path d="M61.8922 50.7606C60.8896 51.7655 60.8273 53.372 61.749 54.4515C62.6487 54.8455 63.6096 55.081 64.5895 55.1476C65.5045 55.2093 66.1838 55.2571 66.8349 54.9006C67.7387 54.401 67.8005 53.5365 68.519 51.8609C69.7175 49.1102 70.9048 48.3383 70.5595 47.878C70.102 47.269 67.6854 48.2036 66.122 49.1692C65.3881 49.6212 64.7114 50.1603 64.1067 50.7746C64.8271 49.433 65.0863 48.6845 64.8842 48.5292C64.6297 48.3159 63.6324 49.0597 61.8922 50.7606Z" fill="#0D0E56"/>
<path d="M60.1015 23.5769C60.1345 24.5112 60.2825 25.4379 60.5421 26.336L63.798 26.4539C62.7285 24.6887 62.2323 22.6353 62.3778 20.5765C62.6893 16.5852 65.3979 14.2051 65.9592 13.7532C64.219 14.5563 62.741 15.8348 61.6957 17.4413C60.5444 19.2732 59.9875 21.4163 60.1015 23.5769Z" fill="#0D0E56"/>
<path d="M107.772 119.061L65.2323 109.748L47.6619 119.838L9.20337 119.139L48.2457 124.231L67.4356 112.967L107.772 119.061Z" fill="#5E5FA8"/>
<path d="M75.5584 77.2763L77.206 74.5116L70.001 70.1695C72.5929 71.3367 75.2928 72.2477 78.062 72.8893C78.8348 73.067 79.588 73.2205 80.3215 73.3496L75.5584 77.2763Z" fill="#0D0E56"/>
<path d="M47.7433 18.4546C47.5708 18.8043 47.3401 19.1222 47.0613 19.3948C45.467 20.9049 42.2898 20.6832 40.8386 19.058C40.6338 18.8251 39.9826 18.0925 40.2015 17.4778C40.2496 17.3402 40.3351 17.2186 40.4485 17.127C42.0088 17.2138 43.5495 17.517 45.0264 18.0279C45.8017 16.5095 46.712 15.0638 47.7461 13.7083C48.4282 14.3651 48.6611 16.706 47.7433 18.4546Z" fill="#0D0E56"/>
<path d="M87.7679 68.8307C87.0017 70.1077 87.0017 71.6374 87.7679 72.718C88.2489 73.3652 88.946 73.8183 89.7327 73.9951C88.5353 72.5321 87.8457 70.7196 87.7679 68.8307V68.8307Z" fill="#0D0E56"/>
<path d="M44.3836 82.3313C43.4742 83.5101 43.2917 85.0258 43.9205 86.1906C44.3218 86.8909 44.9612 87.4238 45.7224 87.6922C45.2649 86.9753 44.915 86.1951 44.6839 85.3766C44.4072 84.3868 44.3055 83.3561 44.3836 82.3313Z" fill="#0D0E56"/>
</svg>
