<svg width="121" height="151" viewBox="0 0 121 151" fill="none" xmlns="http://www.w3.org/2000/svg">
<path d="M60.1345 5.54022V91.6432C60.1345 95.71 56.8377 99.0068 52.7709 99.0068H9.20686C5.14368 99.0017 1.85254 95.7064 1.85254 91.6432V5.54022C1.85254 1.47343 5.14933 -1.82336 9.21613 -1.82336H52.7802C56.8433 -1.81825 60.1345 1.47704 60.1345 5.54022Z" fill="#0D0E56"/>
<path d="M62.2956 3.35432V89.4573C62.2956 93.5241 58.9988 96.8209 54.932 96.8209H11.368C7.30482 96.8158 4.01367 93.5205 4.01367 89.4573V3.35432C4.01878 -0.705242 7.30843 -3.9949 11.368 -4H54.932C58.9952 -4 62.2905 -0.708855 62.2956 3.35432Z" fill="#F3F6FF"/>
<path d="M33.7367 48.9005C41.294 48.9005 47.4203 42.911 47.4203 35.5225C47.4203 28.1341 41.294 22.1446 33.7367 22.1446C26.1795 22.1446 20.0531 28.1341 20.0531 35.5225C20.0531 42.911 26.1795 48.9005 33.7367 48.9005Z" fill="#ADFFEF"/>
<path d="M107.079 118.569C114.636 118.569 120.763 112.443 120.763 104.885C120.763 97.3281 114.636 91.2018 107.079 91.2018C99.522 91.2018 93.3956 97.3281 93.3956 104.885C93.3956 112.443 99.522 118.569 107.079 118.569Z" fill="#ADFFEF"/>
<path d="M36.2468 135.596L42.2149 138.724C44.4952 134.687 46.4417 130.469 48.0347 126.115C48.9208 123.694 49.6495 121.363 50.2484 119.159L42.3446 113.151C40.313 120.63 38.2804 128.112 36.2468 135.596Z" fill="#0D0E56"/>
<path d="M62.2956 82.9088V89.4573C62.2956 93.5241 58.9988 96.8209 54.932 96.8209H11.368C7.30482 96.8158 4.01367 93.5205 4.01367 89.4573V82.9088H62.2956Z" fill="#9F9DED"/>
<path d="M81.3824 117.955C82.0783 116.691 82.4705 115.283 82.5278 113.842L80.0208 111.814L76.3745 108.871L69.085 102.987C63.9774 102.271 58.8319 101.859 53.6755 101.752C43.0639 101.523 34.6537 101.341 32.7765 105.234C31.9985 106.849 32.159 109.529 37.1298 116.207C41.6437 122.28 49.7668 131.181 63.9907 138.9L70.7275 138.199C69.8013 136.498 68.415 134.003 66.6922 131.008C64.2223 126.707 62.9873 124.556 62.0611 123.268C60.1592 120.576 56.3647 116.71 48.2262 114.092C52.1627 116.931 56.5165 119.142 61.1317 120.644C63.5756 121.46 66.0844 122.066 68.6312 122.456C71.768 122.913 75.3001 123.123 78.0973 121.369C79.4664 120.531 80.5974 119.355 81.3824 117.955Z" fill="#472FC8"/>
<path d="M72.5739 80.5377C74.025 77.9535 77.4891 71.7786 83.2503 71.124C87.9957 70.5868 92.5929 73.9861 94.6399 76.9717C99.9164 84.6563 95.0814 99.5101 82.5278 113.827L67.6648 103.558C67.8644 99.2476 68.4179 94.9612 69.3197 90.7417C70.2891 86.1908 70.8665 83.5819 72.5739 80.5377Z" fill="#00BEA1"/>
<path d="M65.3615 104.75C66.8064 105.219 72.3329 106.812 78.23 104.132C84.0251 101.495 86.3562 96.4628 87.3503 94.3417C90.4038 87.8302 89.2985 81.7757 88.8354 79.7504L65.3615 104.75Z" fill="#0D0E56"/>
<path d="M46.954 75.5391L50.3502 72.7388C50.6404 75.0914 52.0422 84.3569 59.3687 88.9664C60.9124 89.9328 64.2376 92.0292 67.6523 91.0011C70.57 90.1242 72.3545 87.3208 73.361 85.7524C74.1051 84.5853 74.1514 83.6344 75.4142 81.3651C76.5041 79.4108 77.1123 78.7778 77.5353 78.3981C78.5314 77.4855 79.7474 76.8472 81.0643 76.5456C83.6855 75.9991 86.526 77.0118 87.9647 78.5463C91.2529 82.0475 88.4711 89.5778 86.2666 93.3661C82.4258 99.9393 74.0465 105.88 65.3584 104.768C54.2559 103.332 44.6384 90.6584 46.954 75.5391Z" fill="#00BEA1"/>
<path d="M72.7405 141.876C73.0109 142.691 73.0641 143.563 72.8949 144.405L51.082 145.14C51.1923 144.533 51.4631 143.967 51.8662 143.5C52.6535 142.62 53.7774 142.404 55.4137 142.265C59.906 141.907 61.5454 142.75 63.2744 141.611C63.8934 141.189 64.3992 140.622 64.7471 139.959L70.8973 139.394C71.757 140.007 72.4018 140.876 72.7405 141.876Z" fill="#0D0E56"/>
<path d="M42.2086 142.827C42.3289 143.215 42.3289 143.631 42.2086 144.019C42.0087 144.515 41.6167 144.909 41.1218 145.112L20.7446 141.805C21.1159 140.997 21.7077 140.31 22.452 139.823C23.1899 139.36 24.2705 139.014 27.5741 139.486C31.5878 140.058 32.5881 140.934 33.9065 140.261C34.5703 139.919 35.4039 139.141 35.8701 137.109L41.9308 140.051C41.6563 140.426 41.5279 140.889 41.5695 141.351C41.6467 142.037 42.0141 142.126 42.2086 142.827Z" fill="#0D0E56"/>
<path d="M82.503 68.4626C87.0967 68.4626 90.8206 64.7387 90.8206 60.145C90.8206 55.5513 87.0967 51.8274 82.503 51.8274C77.9093 51.8274 74.1854 55.5513 74.1854 60.145C74.1854 64.7387 77.9093 68.4626 82.503 68.4626Z" fill="#472FC8"/>
<rect x="23.0726" y="-0.409302" width="20.158" height="1.79073" rx="0.895363" fill="#B9BACE"/>
<path d="M33.1501 93.1993C35.2747 93.1993 36.997 91.477 36.997 89.3523C36.997 87.2277 35.2747 85.5054 33.1501 85.5054C31.0254 85.5054 29.3031 87.2277 29.3031 89.3523C29.3031 91.477 31.0254 93.1993 33.1501 93.1993Z" fill="#5E5FA8"/>
<path d="M107.965 80.9051C104.779 78.537 99.8207 80.4234 97.0914 82.6526C93.6303 85.4776 92.6269 90.1551 91.1202 94.1379C88.6904 100.575 84.5347 106.179 78.7704 110.054C75.8991 111.977 72.4535 113.243 68.9584 113.092C65.3091 112.934 61.3293 111.397 57.9702 113.425C55.034 115.197 53.0642 118.152 51.6718 121.224C50.6961 123.385 60.082 128.041 61.4961 128.776C71.2216 133.83 82.4229 132.172 91.1357 125.834C99.9936 119.393 106.067 109.273 109.617 99.0748C111.559 93.5173 113.572 85.0639 107.965 80.9051Z" fill="#9F9DED"/>
<path d="M34.6999 56.1252C42.1395 56.1252 48.1705 55.7851 48.1705 55.3657C48.1705 54.9462 42.1395 54.6061 34.6999 54.6061C27.2604 54.6061 21.2294 54.9462 21.2294 55.3657C21.2294 55.7851 27.2604 56.1252 34.6999 56.1252Z" fill="#B9BACE"/>
<path d="M47.939 109.192C50.9429 110.574 53.5993 112.612 55.7132 115.154C55.2852 113.595 54.4041 112.198 53.1815 111.141C51.714 109.901 49.86 109.212 47.939 109.192L47.939 109.192Z" fill="#0D0E56"/>
<path d="M104.791 143.25L43.2491 145.479L0.240845 138.273L44.3544 150.283L104.791 143.25Z" fill="#5E5FA8"/>
<rect x="20.6736" y="68.3361" width="24.9528" height="7.4099" rx="3.70495" fill="#9F9DED"/>
<path d="M42.6069 64.1186C42.9002 63.674 46.3304 64.7176 48.4391 67.3419C49.6433 68.89 50.3283 70.7786 50.3966 72.7388C50.6521 73.8239 50.1732 74.9493 49.2141 75.5175C48.5142 75.8568 47.6987 75.8625 46.9942 75.5329C46.5267 75.4657 46.0935 75.2491 45.7592 74.9154C45.2158 74.3288 45.4011 73.628 44.8855 72.2633C44.7666 71.9564 44.6306 71.6564 44.4779 71.3649C44.8515 73.2945 44.6169 73.4983 44.5273 73.5261C44.2958 73.6125 43.8573 73.0197 43.1596 72.0812C42.505 71.1951 42.1778 70.7535 42.1129 70.4417C41.7857 68.793 44.9719 66.9652 45.1108 66.888C42.9157 65.0016 42.4587 64.3285 42.6069 64.1186Z" fill="#0D0E56"/>
<path d="M86.6928 71.3772C85.967 72.4274 85.0803 73.3568 84.0654 74.1312C81.3237 76.2059 77.4304 77.2588 76.7573 76.2739C76.5196 75.925 76.5814 75.1716 77.9584 73.3778C80.3773 71.3424 83.629 70.5975 86.6928 71.3772Z" fill="#0D0E56"/>
<path d="M34.9192 110.295C35.9192 109.854 36.568 108.868 36.5772 107.775C36.5414 107.149 36.2804 106.557 35.8424 106.108C35.9994 107.567 35.6741 109.038 34.9161 110.295H34.9192Z" fill="#0D0E56"/>
</svg>
